<?xml version="1.0" encoding="UTF-8"?>
<svg version="1.1" xmlns="http://www.w3.org/2000/svg" width="376" height="148">
<path d="M0 0 C124.08 0 248.16 0 376 0 C376 48.84 376 97.68 376 148 C251.92 148 127.84 148 0 148 C0 99.16 0 50.32 0 0 Z " fill="#15181C" transform="translate(0,0)"/>
<path d="M0 0 C15.18 0 30.36 0 46 0 C49.76468525 7.5293705 53.42086781 14.99941119 56.8125 22.6875 C57.58776939 24.44232416 58.36500274 26.19628243 59.14453125 27.94921875 C59.47815674 28.70549561 59.81178223 29.46177246 60.15551758 30.2409668 C60.87205391 31.98252795 60.87205391 31.98252795 62 33 C62.41886475 32.06615479 62.83772949 31.13230957 63.26928711 30.17016602 C64.81940054 26.71584404 66.37249734 23.26287043 67.92651367 19.81030273 C68.59953366 18.31392624 69.27173675 16.81718206 69.94311523 15.32006836 C70.90656002 13.17204866 71.87290528 11.02535508 72.83984375 8.87890625 C73.14091537 8.20598038 73.441987 7.5330545 73.75218201 6.83973694 C75.88612829 2.11387171 75.88612829 2.11387171 77 1 C79.69654854 0.92680379 82.36691458 0.90757463 85.0625 0.9375 C85.82111328 0.94201172 86.57972656 0.94652344 87.36132812 0.95117188 C89.24091871 0.9629932 91.12046899 0.98092922 93 1 C94.67905008 4.57152574 96.35112814 8.14622658 98.01708984 11.72387695 C98.86067013 13.53178905 99.70958714 15.33720791 100.55859375 17.14257812 C101.09355469 18.29306641 101.62851563 19.44355469 102.1796875 20.62890625 C102.91807861 22.2078064 102.91807861 22.2078064 103.67138672 23.81860352 C105.07958971 27.19057947 106.06317432 30.47232655 107 34 C107.66 34 108.32 34 109 34 C109.37769531 32.77410156 109.75539063 31.54820313 110.14453125 30.28515625 C112.19741983 24.1264905 114.94344594 18.3124191 117.6875 12.4375 C119.440625 8.663125 121.19375 4.88875 123 1 C131.58 1 140.16 1 149 1 C143.66714105 11.74969993 138.20745212 22.41142911 132.5625 33 C132.19448273 33.6919043 131.82646545 34.38380859 131.44729614 35.09667969 C126.1015943 45.14498051 120.65846127 55.12341306 115 65 C109.72 65 104.44 65 99 65 C94.71 55.1 90.42 45.2 86 35 C85.34 35 84.68 35 84 35 C83.61142822 35.87325928 83.22285645 36.74651855 82.82250977 37.64624023 C81.38423356 40.87693087 79.9429467 44.10627076 78.50073242 47.33520508 C77.87620771 48.73457596 77.25250702 50.1343149 76.62963867 51.53442383 C75.73571185 53.54344791 74.83885824 55.55114239 73.94140625 57.55859375 C73.6622084 58.18777206 73.38301056 58.81695038 73.09535217 59.4651947 C71.11387171 63.88612829 71.11387171 63.88612829 70 65 C67.4672235 65.07320163 64.96896082 65.09227569 62.4375 65.0625 C61.12402588 65.0514624 59.81055176 65.0404248 58.45727539 65.02905273 C56.74592407 65.01467163 56.74592407 65.01467163 55 65 C49.22890298 55.05396324 43.73698426 44.98414564 38.375 34.8125 C37.27856891 32.73683412 36.1814503 30.66153497 35.08364868 28.58659363 C34.41034754 27.31356977 33.73786741 26.04011107 33.0664978 24.7660675 C30.09896227 19.14761793 27.05049948 13.57374183 24 8 C23.99635437 8.87981537 23.99270874 9.75963074 23.98895264 10.66610718 C23.95095043 18.99255197 23.89395981 27.31860994 23.81609726 35.64478111 C23.77673274 39.92449767 23.74449063 44.20401187 23.72900391 48.48388672 C23.71376408 52.62090079 23.67919062 56.75735812 23.63169098 60.89412308 C23.61695218 62.46556358 23.60896333 64.0370836 23.60811615 65.60859299 C23.5970479 75.85315331 23.02233941 84.94917213 16.625 93.4375 C11.9888942 97.96322233 7.79513377 99.37780383 1.46484375 99.41015625 C0.30662109 99.39275391 0.30662109 99.39275391 -0.875 99.375 C-1.63941406 99.38660156 -2.40382813 99.39820313 -3.19140625 99.41015625 C-8.74370309 99.3818763 -12.90358777 98.19412736 -18 96 C-16.78490988 89.53864094 -14.88111842 83.91608298 -12 78 C-11.37351562 78.03480469 -10.74703125 78.06960937 -10.1015625 78.10546875 C-9.28429687 78.13253906 -8.46703125 78.15960938 -7.625 78.1875 C-6.40683594 78.23970703 -6.40683594 78.23970703 -5.1640625 78.29296875 C-4.44992188 78.19628906 -3.73578125 78.09960938 -3 78 C-0.62515978 74.43773967 -0.69402283 71.8888028 -0.68115234 67.7746582 C-0.67110672 67.04270233 -0.6610611 66.31074646 -0.65071106 65.55661011 C-0.61982815 63.13800845 -0.60282996 60.71951775 -0.5859375 58.30078125 C-0.56722994 56.62354067 -0.54765683 54.94630954 -0.5272522 53.26908875 C-0.47588141 48.85506762 -0.43628223 44.44101595 -0.39910889 40.02685547 C-0.35206567 34.73038421 -0.29044668 29.43406503 -0.23126221 24.1377182 C-0.14298963 16.09187335 -0.07326869 8.04605853 0 0 Z " fill="#FAFAFA" transform="translate(85,46)"/>
<path d="M0 0 C2.14266992 1.24158587 4.06997328 2.63861639 6.015625 4.16796875 C6.015625 2.51796875 6.015625 0.86796875 6.015625 -0.83203125 C13.275625 -0.83203125 20.535625 -0.83203125 28.015625 -0.83203125 C28.015625 20.28796875 28.015625 41.40796875 28.015625 63.16796875 C20.755625 63.16796875 13.495625 63.16796875 6.015625 63.16796875 C5.520625 60.19796875 5.520625 60.19796875 5.015625 57.16796875 C3.778125 58.31265625 3.778125 58.31265625 2.515625 59.48046875 C-4.04022816 64.83466901 -10.46315458 65.74131764 -18.73828125 65.51171875 C-27.54586677 64.57902618 -33.98191727 60.5325237 -39.984375 54.16796875 C-47.35537096 44.80481172 -48.10453441 34.88988447 -47.28613281 23.44140625 C-46.26154716 15.72219784 -41.70093952 8.74100741 -35.93359375 3.63671875 C-25.23030759 -4.42828245 -12.27602546 -5.60147316 0 0 Z " fill="#FCFCFC" transform="translate(274.984375,47.83203125)"/>
<path d="M0 0 C7.26 0 14.52 0 22 0 C22.03738281 2.74570312 22.07476563 5.49140625 22.11328125 8.3203125 C22.15954557 10.99129012 22.21076134 13.66213033 22.26245117 16.33300781 C22.29562296 18.18350819 22.32367887 20.03410786 22.34643555 21.88476562 C22.3801245 24.55121003 22.4324466 27.2167509 22.48828125 29.8828125 C22.49467117 30.70492218 22.5010611 31.52703186 22.50764465 32.37405396 C22.6325669 37.29893328 23.31920874 40.71322968 26 45 C28.97411351 47.42335174 32.27417293 47.35586421 36.03515625 47.2578125 C38.91837475 46.87949755 40.74364849 45.79180855 43 44 C46.41100189 38.88349717 46.18466891 33.6404726 46.31640625 27.63671875 C46.33718735 26.84473587 46.35796844 26.05275299 46.37937927 25.23677063 C46.44447804 22.72043072 46.50357423 20.20399128 46.5625 17.6875 C46.605723 15.97590139 46.64933848 14.26431265 46.69335938 12.55273438 C46.80085315 8.36858986 46.90022065 4.18436399 47 0 C54.26 0 61.52 0 69 0 C69.09233108 6.06563933 69.17181735 12.12879531 69.21972656 18.19458008 C69.23971846 20.25358386 69.26692128 22.31253177 69.30175781 24.37133789 C69.71707593 49.56526777 69.71707593 49.56526777 63.11767578 57.16870117 C54.23668941 65.87671147 42.96649274 66.25439173 31.18823242 66.2487793 C21.69660323 66.12176125 13.48270309 64.13165948 6 58 C0.23167915 50.8654979 -0.28864463 44.16912655 -0.1953125 35.3515625 C-0.1924826 34.33903412 -0.18965271 33.32650574 -0.18673706 32.28329468 C-0.17558254 29.06374062 -0.15048646 25.84446935 -0.125 22.625 C-0.1149641 20.43620195 -0.10583931 18.24739951 -0.09765625 16.05859375 C-0.07736413 10.70553375 -0.03820598 5.35308176 0 0 Z " fill="#FCFCFC" transform="translate(9,47)"/>
<path d="M0 0 C7.26 0 14.52 0 22 0 C22 35.64 22 71.28 22 108 C14.74 108 7.48 108 0 108 C0 72.36 0 36.72 0 0 Z " fill="#FEFEFE" transform="translate(311,3)"/>
<path d="M0 0 C3.82516125 2.04870736 6.2090293 4.69317885 8.4375 8.375 C9.52443908 13.44738239 9.57621449 17.42299191 7.8125 22.25 C5.46100791 25.8177811 2.81557843 28.09221079 -1 30 C-6.03656946 30.64453357 -10.57757476 30.77890427 -14.9375 27.9375 C-19.29471217 24.28936246 -20.74242064 20.06063489 -21.4375 14.5 C-20.72677579 8.81420631 -18.55342417 5.47764738 -14.4375 1.5625 C-9.54707433 -0.66042076 -5.27868731 -1.0174861 0 0 Z " fill="#181B1F" transform="translate(272,64)"/>
<path d="M0 0 C3.37174046 2.19896117 6.09895787 4.23183666 7.875 7.875 C8.65610874 12.47322505 8.47110127 16.43180746 6.6875 20.75 C2.6952734 25.43054154 -0.70577175 27.54696905 -6.8125 28.375 C-11.68018426 28.35697154 -14.16092355 25.83300617 -17.55859375 22.6015625 C-20.80215683 19.02636329 -20.63168595 15.44377402 -20.61328125 10.78125 C-19.79733821 5.92475701 -16.89157531 2.89148643 -13.125 -0.125 C-8.46247142 -1.67917619 -4.63746673 -1.66948802 0 0 Z " fill="#FAFBFB" transform="translate(362.125,85.125)"/>
<path d="M0 0 C5.15055847 1.78288562 7.56506082 4.13012164 10 9 C10.65293024 14.22344192 9.845108 17.58517724 7 22 C4.74113468 24.60111764 3.09474821 25.78439594 -0.30078125 26.453125 C-5.1999362 26.78023094 -8.25134613 26.33108408 -12.0625 23.125 C-15.28979449 19.98123549 -16.20989561 17.81630798 -16.4375 13.3125 C-16.41544127 8.23899195 -14.98873334 5.85075283 -11.5078125 2.27734375 C-8.04620966 -0.65515399 -4.32777914 -0.4360076 0 0 Z " fill="#FAFAFA" transform="translate(100,7)"/>
</svg>
